<svg id="Icons" xmlns="http://www.w3.org/2000/svg" viewBox="0 0 60 60">
  <title>Brain_60px_black</title>
  <path d="M54.734,30.055a12.262,12.262,0,0,0-2.87-7.908,9.652,9.652,0,0,0,.2-1.892A10.661,10.661,0,0,0,43.807,9.884,8.2,8.2,0,0,0,30,5.382a8.2,8.2,0,0,0-13.807,4.5A10.662,10.662,0,0,0,7.937,20.255a9.655,9.655,0,0,0,.2,1.892,12.306,12.306,0,0,0,.293,16.136,10.611,10.611,0,0,0,8.316,13.7A8.155,8.155,0,0,0,30,54.728a8.155,8.155,0,0,0,13.254-2.746,10.609,10.609,0,0,0,8.326-13.71A12.245,12.245,0,0,0,54.734,30.055ZM25.458,19.38A8.081,8.081,0,0,0,27.5,18.8v7.94c-.2,0-.4.014-.6.03a8.074,8.074,0,0,0-4.011-4.128l-2.109,4.534a3.119,3.119,0,0,1,1.5,1.482,8.2,8.2,0,0,0-2.947,6.3h5A3.218,3.218,0,0,1,27.5,31.743v5.744a3.221,3.221,0,0,1-2.757,3.161l.715,4.948a8.122,8.122,0,0,0,2.042-.579v3.821a3.2,3.2,0,0,1-6.388.338,2.048,2.048,0,0,1,.805-1.7l-3.238-3.809a7.134,7.134,0,0,0-2.158,3.082v.011a5.629,5.629,0,0,1-3.6-5.24c0-.031.008-.059.009-.09l.009.006a12.408,12.408,0,0,0,2.577.737l.829-4.931a7.288,7.288,0,0,1,0-14.375l-.829-4.93a12.338,12.338,0,0,0-2.3.625,5.645,5.645,0,0,1,3.7-3.686,8.038,8.038,0,0,0,1.657,2.287l3.453-3.616a3.113,3.113,0,0,1-.957-2.275,3.217,3.217,0,1,1,3.676,3.16Zm18.2,17.862.829,4.931a12.347,12.347,0,0,0,2.577-.737l.022-.012c0,.033.009.063.009.1a5.628,5.628,0,0,1-3.608,5.244l0-.015a7.134,7.134,0,0,0-2.158-3.082l-3.238,3.809A2.077,2.077,0,0,1,38.9,49.1l-.014.1a3.2,3.2,0,0,1-6.384-.37V45.017a8.122,8.122,0,0,0,2.042.579l.715-4.948A3.221,3.221,0,0,1,32.5,37.487V31.743a3.218,3.218,0,0,1,3.167,3.212h5a8.2,8.2,0,0,0-2.947-6.3,3.119,3.119,0,0,1,1.5-1.482l-2.109-4.534A8.074,8.074,0,0,0,33.1,26.771c-.2-.016-.4-.029-.6-.03V18.8a8.081,8.081,0,0,0,2.042.579l.715-4.948a3.206,3.206,0,1,1,3.676-3.16,3.113,3.113,0,0,1-.957,2.275l3.453,3.616a8.038,8.038,0,0,0,1.657-2.287,5.641,5.641,0,0,1,3.7,3.686,12.307,12.307,0,0,0-2.3-.625l-.829,4.93a7.288,7.288,0,0,1,0,14.375Z"/>
</svg>
